<?xml version="1.0" encoding="iso-8859-1"?>
<!-- Generator: Adobe Illustrator 19.0.0, SVG Export Plug-In . SVG Version: 6.00 Build 0)  -->
<svg version="1.1" id="Capa_1" xmlns="http://www.w3.org/2000/svg" xmlns:xlink="http://www.w3.org/1999/xlink" x="0px" y="0px"
	 viewBox="0 0 512 512" style="enable-background:new 0 0 512 512;" xml:space="preserve">
<g>
	<path style="fill:#DE4C3C;" d="M290.712,459.932H151.864c-52.389-20.983-86.754-71.732-86.78-128.174v-97.454h312.407v97.454
		C377.466,388.2,343.101,438.949,290.712,459.932z"/>
	<path style="fill:#DE4C3C;" d="M429.559,260.339h-34.712v34.712h22.563c6.708,0,12.149,5.441,12.149,12.149l0,0v20.914
		c0.035,5.953-4.278,11.03-10.153,11.976l-26.034,9.98c-2.031,15.403-6.699,30.347-13.798,44.171l61.874-21.087
		c13.833-5.042,22.979-18.258,22.823-32.976v-45.125C464.271,275.881,448.729,260.339,429.559,260.339z"/>
</g>
<g>
	<rect x="377.492" y="260.339" style="fill:#BD4133;" width="17.356" height="34.712"/>
	<path style="fill:#BD4133;" d="M375.062,357.185c-2.985,15.707-8.617,30.789-16.662,44.605l21.348-7.55
		c7.099-13.824,11.767-28.767,13.798-44.171L375.062,357.185z"/>
</g>
<path style="fill:#C94536;" d="M315.791,234.305c-8.678,118.107-77.147,186.316-148.48,225.627h123.401
	c52.389-20.983,86.754-71.732,86.78-128.174v-97.454H315.791z"/>
<g>
	<path style="fill:#DBDBDB;" d="M39.051,459.932h364.475l0,0l0,0c0,28.759-23.309,52.068-52.068,52.068l0,0H91.119
		C62.36,512,39.051,488.691,39.051,459.932L39.051,459.932L39.051,459.932L39.051,459.932z"/>
	<rect x="91.119" y="260.339" style="fill:#DBDBDB;" width="17.356" height="17.356"/>
	<rect x="91.119" y="295.051" style="fill:#DBDBDB;" width="17.356" height="52.068"/>
	<path style="fill:#DBDBDB;" d="M273.356,0v43.39c0,19.17-15.542,34.712-34.712,34.712h-34.712
		c-41.246-0.009-76.791,29.01-85.044,69.424h-1.736c-28.759,0-52.068,23.309-52.068,52.068v8.678h312.407
		c-0.017-18.58-9.936-35.745-26.034-45.039v-7.029c0-33.549,27.197-60.746,60.746-60.746s60.746-27.197,60.746-60.746V0H273.356z"/>
</g>
<path style="fill:#D1D1D1;" d="M351.458,459.932c0,28.759-23.309,52.068-52.068,52.068l0,0h52.068
	c28.759,0,52.068-23.309,52.068-52.068l0,0H351.458z"/>
<g>
</g>
<g>
</g>
<g>
</g>
<g>
</g>
<g>
</g>
<g>
</g>
<g>
</g>
<g>
</g>
<g>
</g>
<g>
</g>
<g>
</g>
<g>
</g>
<g>
</g>
<g>
</g>
<g>
</g>
</svg>
